<?xml version="1.0" encoding="UTF-8"?>
<svg id="Layer_2" data-name="Layer 2" xmlns="http://www.w3.org/2000/svg" viewBox="0 0 22.52 18.16">
  <g id="Layer_1-2" data-name="Layer 1">
    <path d="M8.33,8.66h2.17c2.49,0,4.5,2.02,4.5,4.5h-7s0,1,0,1h8v-1c0-1.08-.32-2.1-.89-3h2.89c1.99,0,3.71,1.17,4.52,2.85-2.36,3.12-6.19,5.15-10.52,5.15-2.76,0-5.1-.59-7-1.62V7.23c1.25.18,2.39.68,3.33,1.43ZM3,6.16c.51,0,.94.39.99.88v.12s0,9,0,9c0,.55-.45,1-1,1H1c-.55,0-1-.45-1-1V7.16c0-.55.45-1,1-1h2ZM12.65.73l.35.35.35-.35c.98-.98,2.56-.98,3.54,0,.98.98.98,2.56,0,3.54l-3.89,3.89-3.89-3.89c-.98-.98-.98-2.56,0-3.54.98-.98,2.56-.98,3.54,0Z"/>
  </g>
</svg>